# xmcd CD database file
#
# Track frame offsets:
#	150
#	20176
#	34414
#	47947
#	72972
#	97038
#	110914
#	130963
#	150347
#	163951
#	192513
#	204168
#	224742
#	243656
#	265521
#	282133
#	298838
#	314692
#
# Disc length: 4413 seconds
#
# Revision: 0
# Processed by: cddbd v1.5.1PL2 Copyright (c) Steve Scherf et al.
# Submitted via: CDex 1.51
#
DISCID=28113b12
DTITLE=Various Artist - A touch of jazz
DYEAR=2005
DGENRE=Jazz
TTITLE0=Shakatak/Night Birds
TTITLE1=Wes Montgomery/California Dreaming
TTITLE2=Sarah Vaughan/Misty
TTITLE3=The Rippingtons/She likes to watch
TTITLE4=Dave Grusin, Steve Gadd, Lee Ritenour/She could be mine
TTITLE5=Laura Fygi/Bésame mucho
TTITLE6=Group 3/Uncle Darrows
TTITLE7=Marc Antoine/Cruisin'
TTITLE8=Louis Armstrong and Kenny G/What a wonderful world
TTITLE9=Dizzy Gillespie/Mas que nada (pow, pow, pow)
TTITLE10=Carmen McRae/Blue Moon
TTITLE11=Caetano Veloso/Feelings
TTITLE12=Natalie Cole/Tell me all about it
TTITLE13=Dave Valentin/Do it again
TTITLE14=Jamie Cullum/Twentysomething
TTITLE15=Ella Fitzgerald and Louis Armstrong/Moonlight in Vermont
TTITLE16=Chuck Mangione/Feels so good
TTITLE17=Richard Elliot/Crush
EXTD=YEAR: 2005
EXTT0=
EXTT1=
EXTT2=
EXTT3=
EXTT4=
EXTT5=
EXTT6=
EXTT7=
EXTT8=
EXTT9=
EXTT10=
EXTT11=
EXTT12=
EXTT13=
EXTT14=
EXTT15=
EXTT16=
EXTT17=
PLAYORDER=
